<svg version="1.2" xmlns="http://www.w3.org/2000/svg" viewBox="0 0 200 200" width="200" height="200">
	<title>Proyecto nuevo</title>
	<style>
		.s0 { fill: none;stroke: #d50f0f;stroke-miterlimit:10 } 
		.s1 { fill: none;stroke: #2ae0fe;stroke-miterlimit:10 } 
		.s2 { fill: none;stroke: #63e85b;stroke-miterlimit:10 } 
		.s3 { fill: none;stroke: #ffaf00;stroke-miterlimit:10 } 
	</style>
	<g id="Layer 1">
		<path id="Forma 1" fill-rule="evenodd" class="s0" d="m26 21c31.2-15.7 160.2-13.8 145 14-15.2 27.8-79.2-29.5-58 6 21.2 35.5 122.5 20.3 46 28-76.5 7.7-143.2-59.3-104-5 39.2 54.3 2.2 79.3-15 53-12.1-18.5 126.7-43.8 59-48.1-67.7-4.3 26.6 4.9 34 18.1 25 44.4 62.6 123.7 27 38-35.6-85.7-84.8-133-92-79-7.2 54-14.8 101.5 24 73 38.8-28.5-121.8 7.4-47 26 74.8 18.6 94.9-85.6 49-106-45.9-20.4-21.8 141.7 28 107 49.8-34.7 44-85.2 57-40 13 45.2-157.8 111.1-120 58 37.8-53.1 91.8-24.1 33-4-58.8 20.1-111.4-95.3-56-97 55.4-1.7 59.3 32.4 59-11-0.3-43.4 9.2-60.6 47-5 37.8 55.6-143.2 48.3-121 8 22.2-40.3-42.9 108.6 8 115 50.9 6.4 93.5-133.6 101-60 7.5 73.6-170.3-66.6-73-84"/>
		<path id="Forma 1 copy" fill-rule="evenodd" class="s1" d="m174.5 25.3c15.7 31.2 13.8 160.3-14 145-27.8-15.2 29.5-79.2-6-58-35.5 21.3-20.3 122.5-28 46-7.7-76.5 59.3-143.1 5-104-54.3 39.2-79.3 2.3-53-15 18.5-12.1 43.8 126.8 48.1 59 4.3-67.7-4.9 26.6-18.1 34-44.4 25.1-123.7 62.7-38 27 85.7-35.6 133-84.7 79-92-54-7.2-101.5-14.7-73 24 28.5 38.8-7.4-121.7-26-47-18.6 74.8 85.6 95 106 49 20.4-45.9-141.7-21.8-107 28 34.7 49.9 85.2 44 40 57-45.2 13.1-111.1-157.8-58-120 53.1 37.9 24.1 91.9 4 33-20.1-58.8 95.3-111.4 97-56 1.7 55.5-32.4 59.4 11 59 43.4-0.3 60.6 9.3 5 47-55.6 37.8-48.3-143.2-8-121 40.3 22.3-108.6-42.9-115 8-6.4 51 133.6 93.5 60 101-73.6 7.6 66.6-170.3 84-73"/>
		<path id="Forma 1 copy 2" fill-rule="evenodd" class="s2" d="m170.2 173.8c-31.2 15.8-160.3 13.9-145-14 15.2-27.8 79.2 29.6 58-6-21.3-35.5-122.5-20.3-46-28 76.5-7.7 143.1 59.3 104 5-39.2-54.2-2.3-79.2 15-53 12.1 18.5-126.8 43.8-59 48.1 67.7 4.3-26.6-4.8-34-18.1-25.1-44.4-62.7-123.6-27-38 35.6 85.7 84.7 133 92 79 7.2-54 14.7-101.5-24-73-38.8 28.6 121.7-7.3 47-26-74.8-18.6-95 85.6-49 106 45.9 20.4 21.8-141.7-28-107-49.9 34.8-44 85.2-57 40-13.1-45.1 157.8-111.1 120-58-37.8 53.2-91.9 24.2-33 4 58.8-20.1 111.4 95.4 56 97-55.5 1.7-59.4-32.3-59 11 0.3 43.4-9.3 60.6-47 5-37.8-55.5 143.2-48.2 121-8-22.3 40.3 42.9-108.5-8-115-51-6.4-93.5 133.7-101 60-7.6-73.6 170.3 66.7 73 84"/>
		<path id="Forma 1 copy 3" fill-rule="evenodd" class="s3" d="m21.7 169.5c-15.8-31.2-13.9-160.2 14-145 27.8 15.2-29.5 79.2 6 58 35.5-21.2 20.3-122.5 28-46 7.7 76.5-59.3 143.2-5 104 54.2-39.2 79.2-2.2 53 15-18.5 12.1-43.8-126.7-48.1-59-4.3 67.8 4.8-26.6 18.1-34 44.4-25 123.6-62.6 38-27-85.7 35.6-133 84.8-79 92 54 7.2 101.5 14.8 73-24-28.6-38.8 7.3 121.8 26 47 18.6-74.8-85.6-94.9-106-49-20.4 45.9 141.7 21.8 107-28-34.8-49.8-85.2-44-40-57 45.1-13 111.1 157.8 58 120-53.2-37.8-24.1-91.8-4-33 20.1 58.8-95.4 111.4-97 56-1.7-55.4 32.3-59.3-11-59-43.4 0.4-60.6-9.2-5-47 55.5-37.8 48.2 143.2 8 121-40.3-22.2 108.5 42.9 115-8 6.4-50.9-133.7-93.4-60-101 73.6-7.5-66.6 170.4-84 73"/>
	</g>
</svg>