<svg width="800" height="800" xmlns="http://www.w3.org/2000/svg">

 <g>
  <title>Layer 1</title>
  <path d="m125.33344,221.33347c-1.33334,-1.33334 -4,-2.66667 -4,-5.33334c0,-9.33333 1.13218,-24.06317 6.66666,-41.33334c6.4337,-20.07616 14.5058,-41.16335 29.33334,-58.66667c13.40698,-15.82641 36.7892,-30.36253 66.66667,-36.00001c36.89597,-6.96177 86.43878,-3.96233 136.00003,12c46.66547,15.02967 87.04123,35.40257 100.00003,57.33335c8.39005,14.19884 3.79611,33.95027 -9.33334,48c-14.93109,15.97765 -38.59497,20.44984 -70.66669,25.33334c-38.58795,5.87572 -76.75925,9.29593 -105.33334,26.66667c-23.48778,14.27869 -37.38173,34.00137 -41.33334,56c-4.48514,24.96878 0.9991,54.22818 17.33333,82.66669c20.62932,35.91641 52.72676,72.02399 90.6667,97.33337c38.24673,25.51404 81.33334,41.33334 120,58.66666l30.66669,12l22.66669,6.66669" id="svg_24" stroke-width="5" stroke="#306856" fill="none"/>
  <path d="m578.66687,125.33344c1.33331,0 11.25806,4.70719 24,17.33334c15.41772,15.27759 31.58887,33.73654 40,57.33334c9.22913,25.89168 13.99988,55.97728 14.66669,85.33334c0.63586,27.99277 0.15741,49.37042 -4,66.66669c-2.56958,10.69046 -6.55774,17.48288 -12,21.33334c-3.92444,2.77661 -10.58398,4.6644 -18.66669,5.33334c-10.63037,0.87979 -26.75311,1.00275 -48,-1.33334c-25.49359,-2.80304 -51.0199,-9.67618 -74.66669,-18.66669c-18.983,-7.21732 -32.97809,-15.35065 -45.33334,-21.33331c-15.60062,-7.55414 -35.87195,-15.08411 -61.33334,-22.66669c-33.17545,-9.87988 -70.63083,-17.53 -106.66669,-24c-30.63712,-5.5007 -57.29382,-11.10849 -77.33336,-10.66666c-12.07091,0.26614 -20.56969,2.02371 -26.66667,8c-7.43683,7.28958 -16.74028,18.12592 -25.33333,30.66666c-8.78912,12.8269 -14.66667,29.33334 -18.66667,46.66669c-4,17.33334 -7.33247,38.67642 -6.66667,61.33334c0.66695,22.69604 6.03859,46.06543 17.33334,73.33334c13.6913,33.05371 36,66.66669 60,100l24.00002,26.66669l26.66666,20" id="svg_25" stroke-width="5" stroke="#884D58" fill="none"/>
  <path d="m305.33347,540.00018c0,-2.66669 0.04947,-10.67603 -4,-32c-6.58621,-34.68207 -15.33047,-71.83978 -17.33331,-109.33334c-1.77808,-33.28589 3.72092,-62.95163 18.66666,-86.66669c14.65549,-23.25452 36.34521,-40.03534 58.66669,-46.66669c23.32355,-6.92905 52.00613,-3.38702 82.66669,-4c33.35333,-0.66681 62.97205,-2.90054 84,-9.33333c14.92358,-4.56535 26.25653,-12.59135 34.66669,-24.00002c12.0766,-16.38226 25.60822,-39.34796 34.66669,-64c8.14899,-22.17693 10.04059,-45.34439 9.33331,-68.00002c-0.66699,-21.36456 -2.3031,-37.84114 -6.66669,-49.33334c-4.87286,-12.83352 -17.33331,-25.33334 -33.33331,-38.66667l-28,-12l-26.66669,-8" id="svg_26" stroke-width="5" stroke="#7DD8B5" fill="none"/>
  <path d="m125.33344,117.33344c0,0 1.02748,-1.67913 3.99999,-4c6.12799,-4.78459 18.54219,-9.33075 40.00002,-10.66666c30.60741,-1.90555 68.66386,1.51054 108.00002,13.33334c36.76511,11.05006 67.63422,26.99237 86.66669,48.00002c15.40179,17.0002 21.4386,37.51418 18.66669,58.66667c-2.68948,20.52344 -11.0119,37.26768 -22.66669,45.33333c-9.36755,6.48279 -23.96713,9.44135 -41.33334,14.66669c-22.62473,6.80762 -49.56314,16.81073 -77.33334,29.33334c-25.55377,11.52313 -50.72208,19.40793 -68.00002,33.33334c-16.14952,13.01596 -24.64027,32.97855 -28,57.33334c-3.28477,23.81152 -2.76852,45.71976 4,68c6.62271,21.80026 21.87064,43.10458 44,56.00003c24.815,14.46045 63.98613,16.66656 112.00002,17.33331c51.99503,0.72198 105.33337,0 152.00003,0c40.00003,0 72.35913,1.29651 101.33337,-4c24.50269,-4.47913 43.94159,-12.24811 58.66669,-12c10.74811,0.18109 19.46307,4.46753 25.33331,10.66669c7.88641,8.32831 13.1463,24.07922 20,40c5.19238,12.06171 9.11737,22.95203 6.66669,33.33331c-2.05499,8.70502 -14.00049,17.72113 -29.33337,22.66669c-19.41132,6.26105 -47.83087,8.98859 -84,14.66669c-41.17169,6.46344 -84.06677,11.96729 -122.66669,9.33331c-39.14612,-2.67126 -79.70688,-23.38293 -121.33334,-40c-38.40768,-15.33215 -69.51149,-24.52777 -89.33336,-29.33331c-9.43353,-2.28705 -11.7455,-3.93958 -9.33333,-14.66669c4.47466,-19.89917 10.36566,-44.0755 26.66667,-61.33337c20.75706,-21.97546 54.19109,-44.77649 97.33336,-70.66666c43.53433,-26.12546 83.3959,-43.54248 118.66669,-52c30.26892,-7.25815 63.35938,-8.0181 98.66669,-18.66669c35.5603,-10.72488 65.33331,-29.33334 89.33331,-44l13.33337,-14.66669l6.66669,-12" id="svg_27" stroke-width="5" stroke="#C48157" fill="none"/>
  <path d="m25.33342,242.66679c0,0 1.38318,1.56203 8,0c14.79566,-3.4928 34.84374,-10.05923 58.66668,-17.33333c24.19546,-7.38783 54.51196,-16.66402 93.33335,-18.66667c39.9469,-2.06071 81.52632,-2.6851 118.6667,1.33333c29.64127,3.20706 47.21875,10.54088 52,18.66667c4.92258,8.36601 4.39203,26.41197 -4,45.33333c-10.94589,24.67947 -34.16711,49.32306 -62.66669,60.00003c-29.38828,11.00992 -64.2168,11.17896 -94.66667,6.66666c-25.60899,-3.79495 -45.5379,-14.46976 -56.00002,-12c-9.3576,2.20905 -17.51304,18.32339 -21.33334,38.66669c-4.45683,23.73285 -5.24387,52.70593 8.00001,73.33334c14.78078,23.02115 47.04562,37.5498 85.33335,44c47.40602,7.98633 96.27513,-0.04999 142.6667,-10.66666c41.61176,-9.52283 77.3269,-19.85724 105.33334,-18.66669c20.15878,0.85696 40.87582,10.87253 52,30.66669c12.39426,22.05411 15.93369,52.95117 6.66666,82.66669c-11.36707,36.44952 -43.01819,81.75769 -90.66666,117.33337c-41.22668,30.78101 -69.14612,41.03876 -88.00003,41.33331c-12.07236,0.1886 -19.32474,-5.05469 -21.33334,-26.66669c-3.2081,-34.51788 -0.83694,-73.06641 13.33334,-113.33331c15.05511,-42.78125 43.28735,-79.01053 81.33334,-102.66672c44.56433,-27.70917 95.57263,-44.47217 142.66672,-54.66666c44.9917,-9.73938 85.77026,-10.8956 114.66669,-17.33334c21.81586,-4.86029 43.23468,-16.73627 53.33331,-37.33334c12.25635,-24.99789 17.16791,-56.63904 10.66669,-88.00003c-7.53943,-36.36911 -37.14026,-74.34186 -77.33331,-102.66669c-43.93475,-30.9617 -108.51685,-54.4747 -174.66672,-66.66667c-52.85812,-9.7422 -91.09317,-10.26713 -117.33337,-5.33334c-20.71878,3.89564 -38.54156,21.29797 -52,49.33334c-16.61395,34.60861 -24,77.33336 -26.66669,112.00002l0,26.66669l2.66669,17.33334l6.66666,13.33334" id="svg_28" stroke-width="5" stroke="#84D3DB" fill="none"/>
 </g>
</svg>